<svg width="246" height="246" viewBox="0 0 246 246" fill="none" xmlns="http://www.w3.org/2000/svg">
<line x1="122.785" y1="17.5573" x2="122.785" y2="16.2882" stroke="#625298" stroke-width="2" stroke-linecap="round"/>
<line x1="114.538" y1="17.8694" x2="114.428" y2="16.6051" stroke="#625298" stroke-width="2" stroke-linecap="round"/>
<line x1="105.451" y1="18.9778" x2="105.231" y2="17.7279" stroke="#625298" stroke-width="2" stroke-linecap="round"/>
<line x1="96.4953" y1="20.8738" x2="96.1669" y2="19.648" stroke="#625298" stroke-width="2" stroke-linecap="round"/>
<line x1="87.7396" y1="23.5429" x2="87.3055" y2="22.3504" stroke="#625298" stroke-width="2" stroke-linecap="round"/>
<line x1="79.2486" y1="26.9656" x2="78.7123" y2="25.8154" stroke="#625298" stroke-width="2" stroke-linecap="round"/>
<line x1="71.089" y1="31.1148" x2="70.4544" y2="30.0158" stroke="#625298" stroke-width="2" stroke-linecap="round"/>
<line x1="63.3217" y1="35.9597" x2="62.5938" y2="34.9201" stroke="#625298" stroke-width="2" stroke-linecap="round"/>
<line x1="56.0065" y1="41.4629" x2="55.1907" y2="40.4907" stroke="#625298" stroke-width="2" stroke-linecap="round"/>
<line x1="49.1989" y1="47.5826" x2="48.3015" y2="46.6852" stroke="#625298" stroke-width="2" stroke-linecap="round"/>
<line x1="42.9502" y1="54.2727" x2="41.978" y2="53.4569" stroke="#625298" stroke-width="2" stroke-linecap="round"/>
<line x1="37.3087" y1="61.4818" x2="36.2691" y2="60.7538" stroke="#625298" stroke-width="2" stroke-linecap="round"/>
<line x1="32.317" y1="69.1547" x2="31.2179" y2="68.5201" stroke="#625298" stroke-width="2" stroke-linecap="round"/>
<line x1="28.0128" y1="77.2341" x2="26.8626" y2="76.6977" stroke="#625298" stroke-width="2" stroke-linecap="round"/>
<line x1="24.429" y1="85.6579" x2="23.2364" y2="85.2238" stroke="#625298" stroke-width="2" stroke-linecap="round"/>
<line x1="21.593" y1="94.3617" x2="20.3671" y2="94.0333" stroke="#625298" stroke-width="2" stroke-linecap="round"/>
<line x1="19.5267" y1="103.28" x2="18.2769" y2="103.059" stroke="#625298" stroke-width="2" stroke-linecap="round"/>
<line x1="18.2453" y1="112.344" x2="16.981" y2="112.233" stroke="#625298" stroke-width="2" stroke-linecap="round"/>
<line x1="17.759" y1="121.485" x2="16.4899" y2="121.485" stroke="#625298" stroke-width="2" stroke-linecap="round"/>
<line x1="1" y1="-1" x2="-0.269099" y2="-1" transform="matrix(-0.0871557 0.996195 0.996195 0.0871557 131.918 16.9603)" stroke="#625298" stroke-width="2" stroke-linecap="round"/>
<line x1="1" y1="-1" x2="-0.269099" y2="-1" transform="matrix(-0.173648 0.984808 0.984808 0.173648 141.081 18.1666)" stroke="#625298" stroke-width="2" stroke-linecap="round"/>
<line x1="1" y1="-1" x2="-0.269099" y2="-1" transform="matrix(-0.258819 0.965926 0.965926 0.258819 150.102 20.1667)" stroke="#625298" stroke-width="2" stroke-linecap="round"/>
<line x1="1" y1="-1" x2="-0.269099" y2="-1" transform="matrix(-0.34202 0.939693 0.939693 0.34202 158.915 22.9454)" stroke="#625298" stroke-width="2" stroke-linecap="round"/>
<line x1="1" y1="-1" x2="-0.269099" y2="-1" transform="matrix(-0.422618 0.906308 0.906308 0.422618 167.453 26.4816)" stroke="#625298" stroke-width="2" stroke-linecap="round"/>
<line x1="1" y1="-1" x2="-0.269099" y2="-1" transform="matrix(-0.5 0.866025 0.866025 0.5 175.65 30.7488)" stroke="#625298" stroke-width="2" stroke-linecap="round"/>
<line x1="1" y1="-1" x2="-0.269099" y2="-1" transform="matrix(-0.573576 0.819152 0.819152 0.573576 183.444 35.7141)" stroke="#625298" stroke-width="2" stroke-linecap="round"/>
<line x1="1" y1="-1" x2="-0.269099" y2="-1" transform="matrix(-0.642788 0.766044 0.766044 0.642788 190.776 41.3397)" stroke="#625298" stroke-width="2" stroke-linecap="round"/>
<line x1="1" y1="-1" x2="-0.269099" y2="-1" transform="matrix(-0.707107 0.707107 0.707107 0.707107 197.588 47.5826)" stroke="#625298" stroke-width="2" stroke-linecap="round"/>
<line x1="1" y1="-1" x2="-0.269099" y2="-1" transform="matrix(-0.766044 0.642788 0.642788 0.766044 203.832 54.3959)" stroke="#625298" stroke-width="2" stroke-linecap="round"/>
<line x1="1" y1="-1" x2="-0.269099" y2="-1" transform="matrix(-0.819152 0.573577 0.573577 0.819152 209.457 61.7273)" stroke="#625298" stroke-width="2" stroke-linecap="round"/>
<line x1="1" y1="-1" x2="-0.269099" y2="-1" transform="matrix(-0.866025 0.5 0.5 0.866025 214.422 69.5211)" stroke="#625298" stroke-width="2" stroke-linecap="round"/>
<line x1="1" y1="-1" x2="-0.269099" y2="-1" transform="matrix(-0.906308 0.422618 0.422618 0.906308 218.689 77.7176)" stroke="#625298" stroke-width="2" stroke-linecap="round"/>
<line x1="1" y1="-1" x2="-0.269099" y2="-1" transform="matrix(-0.939693 0.34202 0.34202 0.939693 222.226 86.2555)" stroke="#625298" stroke-width="2" stroke-linecap="round"/>
<line x1="1" y1="-1" x2="-0.269099" y2="-1" transform="matrix(-0.965926 0.258819 0.258819 0.965926 225.004 95.0688)" stroke="#625298" stroke-width="2" stroke-linecap="round"/>
<line x1="1" y1="-1" x2="-0.269099" y2="-1" transform="matrix(-0.984808 0.173648 0.173648 0.984808 227.004 104.091)" stroke="#625298" stroke-width="2" stroke-linecap="round"/>
<line x1="1" y1="-1" x2="-0.269099" y2="-1" transform="matrix(-0.996195 0.0871558 0.0871558 0.996195 228.211 113.253)" stroke="#625298" stroke-width="2" stroke-linecap="round"/>
<line x1="1" y1="-1" x2="-0.269099" y2="-1" transform="matrix(-1 4.37114e-08 4.37114e-08 1 228.614 122.485)" stroke="#625298" stroke-width="2" stroke-linecap="round"/>
<line x1="1" y1="-1" x2="-0.269099" y2="-1" transform="matrix(-4.37114e-08 -1 -1 4.37114e-08 121.785 227.316)" stroke="#625298" stroke-width="2" stroke-linecap="round"/>
<line x1="1" y1="-1" x2="-0.269099" y2="-1" transform="matrix(0.0871557 -0.996195 -0.996195 -0.0871557 113.455 226.913)" stroke="#625298" stroke-width="2" stroke-linecap="round"/>
<line x1="1" y1="-1" x2="-0.269099" y2="-1" transform="matrix(0.173648 -0.984808 -0.984808 -0.173648 104.292 225.707)" stroke="#625298" stroke-width="2" stroke-linecap="round"/>
<line x1="1" y1="-1" x2="-0.269099" y2="-1" transform="matrix(0.258819 -0.965926 -0.965926 -0.258819 95.2706 223.707)" stroke="#625298" stroke-width="2" stroke-linecap="round"/>
<line x1="1" y1="-1" x2="-0.269099" y2="-1" transform="matrix(0.34202 -0.939693 -0.939693 -0.34202 86.4579 220.928)" stroke="#625298" stroke-width="2" stroke-linecap="round"/>
<line x1="1" y1="-1" x2="-0.269099" y2="-1" transform="matrix(0.422618 -0.906308 -0.906308 -0.422618 77.9197 217.392)" stroke="#625298" stroke-width="2" stroke-linecap="round"/>
<line x1="1" y1="-1" x2="-0.269099" y2="-1" transform="matrix(0.5 -0.866025 -0.866025 -0.5 69.723 213.125)" stroke="#625298" stroke-width="2" stroke-linecap="round"/>
<line x1="1" y1="-1" x2="-0.269099" y2="-1" transform="matrix(0.573576 -0.819152 -0.819152 -0.573576 61.929 208.159)" stroke="#625298" stroke-width="2" stroke-linecap="round"/>
<line x1="1" y1="-1" x2="-0.269099" y2="-1" transform="matrix(0.642788 -0.766044 -0.766044 -0.642788 54.5976 202.534)" stroke="#625298" stroke-width="2" stroke-linecap="round"/>
<line x1="1" y1="-1" x2="-0.269099" y2="-1" transform="matrix(0.707107 -0.707107 -0.707107 -0.707107 47.7847 196.291)" stroke="#625298" stroke-width="2" stroke-linecap="round"/>
<line x1="1" y1="-1" x2="-0.269099" y2="-1" transform="matrix(0.766044 -0.642788 -0.642788 -0.766044 41.5413 189.478)" stroke="#625298" stroke-width="2" stroke-linecap="round"/>
<line x1="1" y1="-1" x2="-0.269099" y2="-1" transform="matrix(0.819152 -0.573577 -0.573577 -0.819152 35.9159 182.146)" stroke="#625298" stroke-width="2" stroke-linecap="round"/>
<line x1="1" y1="-1" x2="-0.269099" y2="-1" transform="matrix(0.866025 -0.5 -0.5 -0.866025 30.9509 174.353)" stroke="#625298" stroke-width="2" stroke-linecap="round"/>
<line x1="1" y1="-1" x2="-0.269099" y2="-1" transform="matrix(0.906308 -0.422618 -0.422618 -0.906308 26.6838 166.156)" stroke="#625298" stroke-width="2" stroke-linecap="round"/>
<line x1="1" y1="-1" x2="-0.269099" y2="-1" transform="matrix(0.939693 -0.34202 -0.34202 -0.939693 23.1473 157.618)" stroke="#625298" stroke-width="2" stroke-linecap="round"/>
<line x1="1" y1="-1" x2="-0.269099" y2="-1" transform="matrix(0.965926 -0.258819 -0.258819 -0.965926 20.3682 148.805)" stroke="#625298" stroke-width="2" stroke-linecap="round"/>
<line x1="1" y1="-1" x2="-0.269099" y2="-1" transform="matrix(0.984808 -0.173648 -0.173648 -0.984808 18.3682 139.783)" stroke="#625298" stroke-width="2" stroke-linecap="round"/>
<line x1="1" y1="-1" x2="-0.269099" y2="-1" transform="matrix(0.996195 -0.0871558 -0.0871558 -0.996195 17.162 130.621)" stroke="#625298" stroke-width="2" stroke-linecap="round"/>
<line x1="1" y1="-1" x2="-0.269099" y2="-1" transform="matrix(1 -4.37114e-08 -4.37114e-08 -1 16.759 121.389)" stroke="#625298" stroke-width="2" stroke-linecap="round"/>
<line x1="130.835" y1="226.004" x2="130.945" y2="227.268" stroke="#625298" stroke-width="2" stroke-linecap="round"/>
<line x1="139.922" y1="224.896" x2="140.143" y2="226.146" stroke="#625298" stroke-width="2" stroke-linecap="round"/>
<line x1="148.878" y1="223" x2="149.206" y2="224.226" stroke="#625298" stroke-width="2" stroke-linecap="round"/>
<line x1="157.634" y1="220.33" x2="158.068" y2="221.523" stroke="#625298" stroke-width="2" stroke-linecap="round"/>
<line x1="166.124" y1="216.908" x2="166.661" y2="218.058" stroke="#625298" stroke-width="2" stroke-linecap="round"/>
<line x1="174.284" y1="212.759" x2="174.919" y2="213.858" stroke="#625298" stroke-width="2" stroke-linecap="round"/>
<line x1="182.052" y1="207.914" x2="182.779" y2="208.953" stroke="#625298" stroke-width="2" stroke-linecap="round"/>
<line x1="189.367" y1="202.411" x2="190.183" y2="203.383" stroke="#625298" stroke-width="2" stroke-linecap="round"/>
<line x1="196.174" y1="196.291" x2="197.072" y2="197.188" stroke="#625298" stroke-width="2" stroke-linecap="round"/>
<line x1="202.423" y1="189.601" x2="203.395" y2="190.417" stroke="#625298" stroke-width="2" stroke-linecap="round"/>
<line x1="208.064" y1="182.392" x2="209.104" y2="183.12" stroke="#625298" stroke-width="2" stroke-linecap="round"/>
<line x1="213.056" y1="174.718" x2="214.156" y2="175.353" stroke="#625298" stroke-width="2" stroke-linecap="round"/>
<line x1="217.36" y1="166.64" x2="218.51" y2="167.176" stroke="#625298" stroke-width="2" stroke-linecap="round"/>
<line x1="220.944" y1="158.216" x2="222.137" y2="158.65" stroke="#625298" stroke-width="2" stroke-linecap="round"/>
<line x1="223.78" y1="149.512" x2="225.006" y2="149.84" stroke="#625298" stroke-width="2" stroke-linecap="round"/>
<line x1="225.846" y1="140.594" x2="227.096" y2="140.814" stroke="#625298" stroke-width="2" stroke-linecap="round"/>
<line x1="227.128" y1="131.53" x2="228.392" y2="131.64" stroke="#625298" stroke-width="2" stroke-linecap="round"/>
<line x1="227.614" y1="122.389" x2="228.883" y2="122.389" stroke="#625298" stroke-width="2" stroke-linecap="round"/>
<g opacity="0.1">
<line x1="122.497" y1="0.854557" x2="122.497" y2="8.06814" stroke="#A295CE" stroke-width="1.70909" stroke-linecap="round"/>
<line x1="122.497" y1="237.305" x2="122.497" y2="244.519" stroke="#A295CE" stroke-width="1.70909" stroke-linecap="round"/>
<line x1="112.92" y1="1.24369" x2="113.548" y2="8.42983" stroke="#A295CE" stroke-width="1.70909" stroke-linecap="round"/>
<line x1="133.528" y1="236.795" x2="134.157" y2="243.981" stroke="#A295CE" stroke-width="1.70909" stroke-linecap="round"/>
<line x1="102.372" y1="2.55708" x2="103.625" y2="9.66107" stroke="#A295CE" stroke-width="1.70909" stroke-linecap="round"/>
<line x1="143.432" y1="235.416" x2="144.684" y2="242.52" stroke="#A295CE" stroke-width="1.70909" stroke-linecap="round"/>
<line x1="91.9798" y1="4.78472" x2="93.8468" y2="11.7525" stroke="#A295CE" stroke-width="1.70909" stroke-linecap="round"/>
<line x1="153.178" y1="233.179" x2="155.045" y2="240.146" stroke="#A295CE" stroke-width="1.70909" stroke-linecap="round"/>
<line x1="81.8211" y1="7.90957" x2="84.2883" y2="14.6881" stroke="#A295CE" stroke-width="1.70909" stroke-linecap="round"/>
<line x1="162.692" y1="230.101" x2="165.159" y2="236.879" stroke="#A295CE" stroke-width="1.70909" stroke-linecap="round"/>
<line x1="71.9727" y1="11.9081" x2="75.0213" y2="18.4459" stroke="#A295CE" stroke-width="1.70909" stroke-linecap="round"/>
<line x1="171.901" y1="226.205" x2="174.95" y2="232.743" stroke="#A295CE" stroke-width="1.70909" stroke-linecap="round"/>
<line x1="62.5107" y1="16.7497" x2="66.1175" y2="22.9969" stroke="#A295CE" stroke-width="1.70909" stroke-linecap="round"/>
<line x1="180.736" y1="221.522" x2="184.343" y2="227.769" stroke="#A295CE" stroke-width="1.70909" stroke-linecap="round"/>
<line x1="53.5067" y1="22.3975" x2="57.6442" y2="28.3065" stroke="#A295CE" stroke-width="1.70909" stroke-linecap="round"/>
<line x1="189.129" y1="216.087" x2="193.267" y2="221.996" stroke="#A295CE" stroke-width="1.70909" stroke-linecap="round"/>
<line x1="45.0291" y1="28.8086" x2="49.6659" y2="34.3345" stroke="#A295CE" stroke-width="1.70909" stroke-linecap="round"/>
<line x1="197.017" y1="209.94" x2="201.654" y2="215.466" stroke="#A295CE" stroke-width="1.70909" stroke-linecap="round"/>
<line x1="37.143" y1="35.9339" x2="42.2437" y2="41.0347" stroke="#A295CE" stroke-width="1.70909" stroke-linecap="round"/>
<line x1="204.339" y1="203.13" x2="209.439" y2="208.231" stroke="#A295CE" stroke-width="1.70909" stroke-linecap="round"/>
<line x1="29.9072" y1="43.7199" x2="35.4331" y2="48.3567" stroke="#A295CE" stroke-width="1.70909" stroke-linecap="round"/>
<line x1="211.039" y1="195.708" x2="216.565" y2="200.344" stroke="#A295CE" stroke-width="1.70909" stroke-linecap="round"/>
<line x1="23.378" y1="52.1067" x2="29.287" y2="56.2442" stroke="#A295CE" stroke-width="1.70909" stroke-linecap="round"/>
<line x1="217.067" y1="187.729" x2="222.976" y2="191.867" stroke="#A295CE" stroke-width="1.70909" stroke-linecap="round"/>
<line x1="17.6042" y1="61.0306" x2="23.8513" y2="64.6374" stroke="#A295CE" stroke-width="1.70909" stroke-linecap="round"/>
<line x1="222.377" y1="179.256" x2="228.624" y2="182.863" stroke="#A295CE" stroke-width="1.70909" stroke-linecap="round"/>
<line x1="12.6304" y1="70.4238" x2="19.1681" y2="73.4724" stroke="#A295CE" stroke-width="1.70909" stroke-linecap="round"/>
<line x1="226.928" y1="170.352" x2="233.465" y2="173.401" stroke="#A295CE" stroke-width="1.70909" stroke-linecap="round"/>
<line x1="8.4943" y1="80.2147" x2="15.2728" y2="82.6819" stroke="#A295CE" stroke-width="1.70909" stroke-linecap="round"/>
<line x1="230.685" y1="161.086" x2="237.464" y2="163.553" stroke="#A295CE" stroke-width="1.70909" stroke-linecap="round"/>
<line x1="5.22702" y1="90.3288" x2="12.1948" y2="92.1958" stroke="#A295CE" stroke-width="1.70909" stroke-linecap="round"/>
<line x1="233.621" y1="151.527" x2="240.589" y2="153.394" stroke="#A295CE" stroke-width="1.70909" stroke-linecap="round"/>
<line x1="2.85394" y1="100.689" x2="9.95793" y2="101.942" stroke="#A295CE" stroke-width="1.70909" stroke-linecap="round"/>
<line x1="235.712" y1="141.748" x2="242.816" y2="143.001" stroke="#A295CE" stroke-width="1.70909" stroke-linecap="round"/>
<line x1="1.39254" y1="111.217" x2="8.57867" y2="111.846" stroke="#A295CE" stroke-width="1.70909" stroke-linecap="round"/>
<line x1="236.944" y1="131.825" x2="244.13" y2="132.454" stroke="#A295CE" stroke-width="1.70909" stroke-linecap="round"/>
<line x1="0.854576" y1="121.832" x2="8.06816" y2="121.832" stroke="#A295CE" stroke-width="1.70909" stroke-linecap="round"/>
<line x1="237.305" y1="121.832" x2="244.519" y2="121.832" stroke="#A295CE" stroke-width="1.70909" stroke-linecap="round"/>
<line x1="0.854545" y1="-0.854545" x2="8.06813" y2="-0.854545" transform="matrix(-0.0871557 0.996195 0.996195 0.0871557 133.38 0.46689)" stroke="#A295CE" stroke-width="1.70909" stroke-linecap="round"/>
<line x1="0.854545" y1="-0.854545" x2="8.06813" y2="-0.854545" transform="matrix(-0.0871557 0.996195 0.996195 0.0871557 112.771 236.018)" stroke="#A295CE" stroke-width="1.70909" stroke-linecap="round"/>
<line x1="0.854545" y1="-0.854545" x2="8.06813" y2="-0.854545" transform="matrix(-0.173648 0.984808 0.984808 0.173648 143.991 1.86392)" stroke="#A295CE" stroke-width="1.70909" stroke-linecap="round"/>
<line x1="0.854545" y1="-0.854545" x2="8.06813" y2="-0.854545" transform="matrix(-0.173648 0.984808 0.984808 0.173648 102.932 234.723)" stroke="#A295CE" stroke-width="1.70909" stroke-linecap="round"/>
<line x1="0.854545" y1="-0.854545" x2="8.06813" y2="-0.854545" transform="matrix(-0.258819 0.965926 0.965926 0.258819 154.44 4.18048)" stroke="#A295CE" stroke-width="1.70909" stroke-linecap="round"/>
<line x1="0.854545" y1="-0.854545" x2="8.06813" y2="-0.854545" transform="matrix(-0.258819 0.965926 0.965926 0.258819 93.2422 232.574)" stroke="#A295CE" stroke-width="1.70909" stroke-linecap="round"/>
<line x1="0.854545" y1="-0.854545" x2="8.06813" y2="-0.854545" transform="matrix(-0.34202 0.939693 0.939693 0.34202 164.648 7.39883)" stroke="#A295CE" stroke-width="1.70909" stroke-linecap="round"/>
<line x1="0.854545" y1="-0.854545" x2="8.06813" y2="-0.854545" transform="matrix(-0.34202 0.939693 0.939693 0.34202 83.7772 229.59)" stroke="#A295CE" stroke-width="1.70909" stroke-linecap="round"/>
<line x1="0.854545" y1="-0.854545" x2="8.06813" y2="-0.854545" transform="matrix(-0.422618 0.906308 0.906308 0.422618 174.536 11.4948)" stroke="#A295CE" stroke-width="1.70909" stroke-linecap="round"/>
<line x1="0.854545" y1="-0.854545" x2="8.06813" y2="-0.854545" transform="matrix(-0.422618 0.906308 0.906308 0.422618 74.6079 225.792)" stroke="#A295CE" stroke-width="1.70909" stroke-linecap="round"/>
<line x1="0.854545" y1="-0.854545" x2="8.06813" y2="-0.854545" transform="matrix(-0.5 0.866025 0.866025 0.5 184.03 16.4369)" stroke="#A295CE" stroke-width="1.70909" stroke-linecap="round"/>
<line x1="0.854545" y1="-0.854545" x2="8.06813" y2="-0.854545" transform="matrix(-0.5 0.866025 0.866025 0.5 65.8046 221.209)" stroke="#A295CE" stroke-width="1.70909" stroke-linecap="round"/>
<line x1="0.854545" y1="-0.854545" x2="8.06813" y2="-0.854545" transform="matrix(-0.573576 0.819152 0.819152 0.573576 193.057 22.1877)" stroke="#A295CE" stroke-width="1.70909" stroke-linecap="round"/>
<line x1="0.854545" y1="-0.854545" x2="8.06813" y2="-0.854545" transform="matrix(-0.573576 0.819152 0.819152 0.573576 57.4344 215.877)" stroke="#A295CE" stroke-width="1.70909" stroke-linecap="round"/>
<line x1="0.854545" y1="-0.854545" x2="8.06813" y2="-0.854545" transform="matrix(-0.642788 0.766044 0.766044 0.642788 201.548 28.7033)" stroke="#A295CE" stroke-width="1.70909" stroke-linecap="round"/>
<line x1="0.854545" y1="-0.854545" x2="8.06813" y2="-0.854545" transform="matrix(-0.642788 0.766044 0.766044 0.642788 49.5606 209.835)" stroke="#A295CE" stroke-width="1.70909" stroke-linecap="round"/>
<line x1="0.854545" y1="-0.854545" x2="8.06813" y2="-0.854545" transform="matrix(-0.707107 0.707107 0.707107 0.707107 209.439 35.934)" stroke="#A295CE" stroke-width="1.70909" stroke-linecap="round"/>
<line x1="0.854545" y1="-0.854545" x2="8.06813" y2="-0.854545" transform="matrix(-0.707107 0.707107 0.707107 0.707107 42.2435 203.13)" stroke="#A295CE" stroke-width="1.70909" stroke-linecap="round"/>
<line x1="0.854545" y1="-0.854545" x2="8.06813" y2="-0.854545" transform="matrix(-0.766044 0.642788 0.642788 0.766044 216.67 43.8252)" stroke="#A295CE" stroke-width="1.70909" stroke-linecap="round"/>
<line x1="0.854545" y1="-0.854545" x2="8.06813" y2="-0.854545" transform="matrix(-0.766044 0.642788 0.642788 0.766044 35.5382 195.813)" stroke="#A295CE" stroke-width="1.70909" stroke-linecap="round"/>
<line x1="0.854545" y1="-0.854545" x2="8.06813" y2="-0.854545" transform="matrix(-0.819152 0.573577 0.573577 0.819152 223.186 52.3165)" stroke="#A295CE" stroke-width="1.70909" stroke-linecap="round"/>
<line x1="0.854545" y1="-0.854545" x2="8.06813" y2="-0.854545" transform="matrix(-0.819152 0.573577 0.573577 0.819152 29.4965 187.939)" stroke="#A295CE" stroke-width="1.70909" stroke-linecap="round"/>
<line x1="0.854545" y1="-0.854545" x2="8.06813" y2="-0.854545" transform="matrix(-0.866025 0.5 0.5 0.866025 228.937 61.3434)" stroke="#A295CE" stroke-width="1.70909" stroke-linecap="round"/>
<line x1="0.854545" y1="-0.854545" x2="8.06813" y2="-0.854545" transform="matrix(-0.866025 0.5 0.5 0.866025 24.1641 179.569)" stroke="#A295CE" stroke-width="1.70909" stroke-linecap="round"/>
<line x1="0.854545" y1="-0.854545" x2="8.06813" y2="-0.854545" transform="matrix(-0.906308 0.422618 0.422618 0.906308 233.879 70.8371)" stroke="#A295CE" stroke-width="1.70909" stroke-linecap="round"/>
<line x1="0.854545" y1="-0.854545" x2="8.06813" y2="-0.854545" transform="matrix(-0.906308 0.422618 0.422618 0.906308 19.5814 170.766)" stroke="#A295CE" stroke-width="1.70909" stroke-linecap="round"/>
<line x1="0.854545" y1="-0.854545" x2="8.06813" y2="-0.854545" transform="matrix(-0.939693 0.34202 0.34202 0.939693 237.975 80.7254)" stroke="#A295CE" stroke-width="1.70909" stroke-linecap="round"/>
<line x1="0.854545" y1="-0.854545" x2="8.06813" y2="-0.854545" transform="matrix(-0.939693 0.34202 0.34202 0.939693 15.7834 161.596)" stroke="#A295CE" stroke-width="1.70909" stroke-linecap="round"/>
<line x1="0.854545" y1="-0.854545" x2="8.06813" y2="-0.854545" transform="matrix(-0.965926 0.258819 0.258819 0.965926 241.193 90.9331)" stroke="#A295CE" stroke-width="1.70909" stroke-linecap="round"/>
<line x1="0.854545" y1="-0.854545" x2="8.06813" y2="-0.854545" transform="matrix(-0.965926 0.258819 0.258819 0.965926 12.7992 152.131)" stroke="#A295CE" stroke-width="1.70909" stroke-linecap="round"/>
<line x1="0.854545" y1="-0.854545" x2="8.06813" y2="-0.854545" transform="matrix(-0.984808 0.173648 0.173648 0.984808 243.51 101.382)" stroke="#A295CE" stroke-width="1.70909" stroke-linecap="round"/>
<line x1="0.854545" y1="-0.854545" x2="8.06813" y2="-0.854545" transform="matrix(-0.984808 0.173648 0.173648 0.984808 10.6511 142.442)" stroke="#A295CE" stroke-width="1.70909" stroke-linecap="round"/>
<line x1="0.854545" y1="-0.854545" x2="8.06813" y2="-0.854545" transform="matrix(-0.996195 0.0871558 0.0871558 0.996195 244.907 111.994)" stroke="#A295CE" stroke-width="1.70909" stroke-linecap="round"/>
<line x1="0.854545" y1="-0.854545" x2="8.06813" y2="-0.854545" transform="matrix(-0.996195 0.0871558 0.0871558 0.996195 9.3558 132.602)" stroke="#A295CE" stroke-width="1.70909" stroke-linecap="round"/>
<line x1="0.854545" y1="-0.854545" x2="8.06813" y2="-0.854545" transform="matrix(-1 4.37114e-08 4.37114e-08 1 245.374 122.687)" stroke="#A295CE" stroke-width="1.70909" stroke-linecap="round"/>
<line x1="0.854545" y1="-0.854545" x2="8.06813" y2="-0.854545" transform="matrix(-1 4.37114e-08 4.37114e-08 1 8.92264 122.687)" stroke="#A295CE" stroke-width="1.70909" stroke-linecap="round"/>
</g>
<mask id="mask0" style="mask-type:alpha" maskUnits="userSpaceOnUse" x="0" y="0" width="246" height="246">
<line x1="122.497" y1="0.854557" x2="122.497" y2="8.06814" stroke="#A295CE" stroke-width="1.70909" stroke-linecap="round"/>
<line x1="122.497" y1="237.305" x2="122.497" y2="244.519" stroke="#A295CE" stroke-width="1.70909" stroke-linecap="round"/>
<line x1="112.92" y1="1.24369" x2="113.548" y2="8.42983" stroke="#A295CE" stroke-width="1.70909" stroke-linecap="round"/>
<line x1="133.528" y1="236.795" x2="134.157" y2="243.981" stroke="#A295CE" stroke-width="1.70909" stroke-linecap="round"/>
<line x1="102.372" y1="2.55708" x2="103.625" y2="9.66107" stroke="#A295CE" stroke-width="1.70909" stroke-linecap="round"/>
<line x1="143.432" y1="235.416" x2="144.684" y2="242.52" stroke="#A295CE" stroke-width="1.70909" stroke-linecap="round"/>
<line x1="91.9798" y1="4.78472" x2="93.8468" y2="11.7525" stroke="#A295CE" stroke-width="1.70909" stroke-linecap="round"/>
<line x1="153.178" y1="233.179" x2="155.045" y2="240.146" stroke="#A295CE" stroke-width="1.70909" stroke-linecap="round"/>
<line x1="81.8211" y1="7.90957" x2="84.2883" y2="14.6881" stroke="#A295CE" stroke-width="1.70909" stroke-linecap="round"/>
<line x1="162.692" y1="230.101" x2="165.159" y2="236.879" stroke="#A295CE" stroke-width="1.70909" stroke-linecap="round"/>
<line x1="71.9727" y1="11.9081" x2="75.0213" y2="18.4459" stroke="#A295CE" stroke-width="1.70909" stroke-linecap="round"/>
<line x1="171.901" y1="226.205" x2="174.95" y2="232.743" stroke="#A295CE" stroke-width="1.70909" stroke-linecap="round"/>
<line x1="62.5107" y1="16.7497" x2="66.1175" y2="22.9969" stroke="#A295CE" stroke-width="1.70909" stroke-linecap="round"/>
<line x1="180.736" y1="221.522" x2="184.343" y2="227.769" stroke="#A295CE" stroke-width="1.70909" stroke-linecap="round"/>
<line x1="53.5067" y1="22.3975" x2="57.6442" y2="28.3065" stroke="#A295CE" stroke-width="1.70909" stroke-linecap="round"/>
<line x1="189.129" y1="216.087" x2="193.267" y2="221.996" stroke="#A295CE" stroke-width="1.70909" stroke-linecap="round"/>
<line x1="45.0291" y1="28.8086" x2="49.6659" y2="34.3345" stroke="#A295CE" stroke-width="1.70909" stroke-linecap="round"/>
<line x1="197.017" y1="209.94" x2="201.654" y2="215.466" stroke="#A295CE" stroke-width="1.70909" stroke-linecap="round"/>
<line x1="37.143" y1="35.9339" x2="42.2437" y2="41.0347" stroke="#A295CE" stroke-width="1.70909" stroke-linecap="round"/>
<line x1="204.339" y1="203.13" x2="209.439" y2="208.231" stroke="#A295CE" stroke-width="1.70909" stroke-linecap="round"/>
<line x1="29.9072" y1="43.7199" x2="35.4331" y2="48.3567" stroke="#A295CE" stroke-width="1.70909" stroke-linecap="round"/>
<line x1="211.039" y1="195.708" x2="216.565" y2="200.344" stroke="#A295CE" stroke-width="1.70909" stroke-linecap="round"/>
<line x1="23.378" y1="52.1067" x2="29.287" y2="56.2442" stroke="#A295CE" stroke-width="1.70909" stroke-linecap="round"/>
<line x1="217.067" y1="187.729" x2="222.976" y2="191.867" stroke="#A295CE" stroke-width="1.70909" stroke-linecap="round"/>
<line x1="17.6042" y1="61.0306" x2="23.8513" y2="64.6374" stroke="#A295CE" stroke-width="1.70909" stroke-linecap="round"/>
<line x1="222.377" y1="179.256" x2="228.624" y2="182.863" stroke="#A295CE" stroke-width="1.70909" stroke-linecap="round"/>
<line x1="12.6304" y1="70.4238" x2="19.1681" y2="73.4724" stroke="#A295CE" stroke-width="1.70909" stroke-linecap="round"/>
<line x1="226.928" y1="170.352" x2="233.465" y2="173.401" stroke="#A295CE" stroke-width="1.70909" stroke-linecap="round"/>
<line x1="8.4943" y1="80.2147" x2="15.2728" y2="82.6819" stroke="#A295CE" stroke-width="1.70909" stroke-linecap="round"/>
<line x1="230.685" y1="161.086" x2="237.464" y2="163.553" stroke="#A295CE" stroke-width="1.70909" stroke-linecap="round"/>
<line x1="5.22702" y1="90.3288" x2="12.1948" y2="92.1958" stroke="#A295CE" stroke-width="1.70909" stroke-linecap="round"/>
<line x1="233.621" y1="151.527" x2="240.589" y2="153.394" stroke="#A295CE" stroke-width="1.70909" stroke-linecap="round"/>
<line x1="2.85394" y1="100.689" x2="9.95793" y2="101.942" stroke="#A295CE" stroke-width="1.70909" stroke-linecap="round"/>
<line x1="235.712" y1="141.748" x2="242.816" y2="143.001" stroke="#A295CE" stroke-width="1.70909" stroke-linecap="round"/>
<line x1="1.39254" y1="111.217" x2="8.57867" y2="111.846" stroke="#A295CE" stroke-width="1.70909" stroke-linecap="round"/>
<line x1="236.944" y1="131.825" x2="244.13" y2="132.454" stroke="#A295CE" stroke-width="1.70909" stroke-linecap="round"/>
<line x1="0.854576" y1="121.832" x2="8.06816" y2="121.832" stroke="#A295CE" stroke-width="1.70909" stroke-linecap="round"/>
<line x1="237.305" y1="121.832" x2="244.519" y2="121.832" stroke="#A295CE" stroke-width="1.70909" stroke-linecap="round"/>
<line x1="0.854545" y1="-0.854545" x2="8.06813" y2="-0.854545" transform="matrix(-0.0871557 0.996195 0.996195 0.0871557 133.38 0.466869)" stroke="#A295CE" stroke-width="1.70909" stroke-linecap="round"/>
<line x1="0.854545" y1="-0.854545" x2="8.06813" y2="-0.854545" transform="matrix(-0.0871557 0.996195 0.996195 0.0871557 112.771 236.018)" stroke="#A295CE" stroke-width="1.70909" stroke-linecap="round"/>
<line x1="0.854545" y1="-0.854545" x2="8.06813" y2="-0.854545" transform="matrix(-0.173648 0.984808 0.984808 0.173648 143.991 1.8639)" stroke="#A295CE" stroke-width="1.70909" stroke-linecap="round"/>
<line x1="0.854545" y1="-0.854545" x2="8.06813" y2="-0.854545" transform="matrix(-0.173648 0.984808 0.984808 0.173648 102.932 234.723)" stroke="#A295CE" stroke-width="1.70909" stroke-linecap="round"/>
<line x1="0.854545" y1="-0.854545" x2="8.06813" y2="-0.854545" transform="matrix(-0.258819 0.965926 0.965926 0.258819 154.44 4.18046)" stroke="#A295CE" stroke-width="1.70909" stroke-linecap="round"/>
<line x1="0.854545" y1="-0.854545" x2="8.06813" y2="-0.854545" transform="matrix(-0.258819 0.965926 0.965926 0.258819 93.2422 232.574)" stroke="#A295CE" stroke-width="1.70909" stroke-linecap="round"/>
<line x1="0.854545" y1="-0.854545" x2="8.06813" y2="-0.854545" transform="matrix(-0.34202 0.939693 0.939693 0.34202 164.648 7.39881)" stroke="#A295CE" stroke-width="1.70909" stroke-linecap="round"/>
<line x1="0.854545" y1="-0.854545" x2="8.06813" y2="-0.854545" transform="matrix(-0.34202 0.939693 0.939693 0.34202 83.7772 229.59)" stroke="#A295CE" stroke-width="1.70909" stroke-linecap="round"/>
<line x1="0.854545" y1="-0.854545" x2="8.06813" y2="-0.854545" transform="matrix(-0.422618 0.906308 0.906308 0.422618 174.536 11.4948)" stroke="#A295CE" stroke-width="1.70909" stroke-linecap="round"/>
<line x1="0.854545" y1="-0.854545" x2="8.06813" y2="-0.854545" transform="matrix(-0.422618 0.906308 0.906308 0.422618 74.6079 225.792)" stroke="#A295CE" stroke-width="1.70909" stroke-linecap="round"/>
<line x1="0.854545" y1="-0.854545" x2="8.06813" y2="-0.854545" transform="matrix(-0.5 0.866025 0.866025 0.5 184.03 16.4369)" stroke="#A295CE" stroke-width="1.70909" stroke-linecap="round"/>
<line x1="0.854545" y1="-0.854545" x2="8.06813" y2="-0.854545" transform="matrix(-0.5 0.866025 0.866025 0.5 65.8046 221.209)" stroke="#A295CE" stroke-width="1.70909" stroke-linecap="round"/>
<line x1="0.854545" y1="-0.854545" x2="8.06813" y2="-0.854545" transform="matrix(-0.573576 0.819152 0.819152 0.573576 193.057 22.1877)" stroke="#A295CE" stroke-width="1.70909" stroke-linecap="round"/>
<line x1="0.854545" y1="-0.854545" x2="8.06813" y2="-0.854545" transform="matrix(-0.573576 0.819152 0.819152 0.573576 57.4344 215.877)" stroke="#A295CE" stroke-width="1.70909" stroke-linecap="round"/>
<line x1="0.854545" y1="-0.854545" x2="8.06813" y2="-0.854545" transform="matrix(-0.642788 0.766044 0.766044 0.642788 201.548 28.7032)" stroke="#A295CE" stroke-width="1.70909" stroke-linecap="round"/>
<line x1="0.854545" y1="-0.854545" x2="8.06813" y2="-0.854545" transform="matrix(-0.642788 0.766044 0.766044 0.642788 49.5606 209.835)" stroke="#A295CE" stroke-width="1.70909" stroke-linecap="round"/>
<line x1="0.854545" y1="-0.854545" x2="8.06813" y2="-0.854545" transform="matrix(-0.707107 0.707107 0.707107 0.707107 209.439 35.934)" stroke="#A295CE" stroke-width="1.70909" stroke-linecap="round"/>
<line x1="0.854545" y1="-0.854545" x2="8.06813" y2="-0.854545" transform="matrix(-0.707107 0.707107 0.707107 0.707107 42.2435 203.13)" stroke="#A295CE" stroke-width="1.70909" stroke-linecap="round"/>
<line x1="0.854545" y1="-0.854545" x2="8.06813" y2="-0.854545" transform="matrix(-0.766044 0.642788 0.642788 0.766044 216.67 43.8252)" stroke="#A295CE" stroke-width="1.70909" stroke-linecap="round"/>
<line x1="0.854545" y1="-0.854545" x2="8.06813" y2="-0.854545" transform="matrix(-0.766044 0.642788 0.642788 0.766044 35.5382 195.813)" stroke="#A295CE" stroke-width="1.70909" stroke-linecap="round"/>
<line x1="0.854545" y1="-0.854545" x2="8.06813" y2="-0.854545" transform="matrix(-0.819152 0.573577 0.573577 0.819152 223.186 52.3165)" stroke="#A295CE" stroke-width="1.70909" stroke-linecap="round"/>
<line x1="0.854545" y1="-0.854545" x2="8.06813" y2="-0.854545" transform="matrix(-0.819152 0.573577 0.573577 0.819152 29.4965 187.939)" stroke="#A295CE" stroke-width="1.70909" stroke-linecap="round"/>
<line x1="0.854545" y1="-0.854545" x2="8.06813" y2="-0.854545" transform="matrix(-0.866025 0.5 0.5 0.866025 228.937 61.3434)" stroke="#A295CE" stroke-width="1.70909" stroke-linecap="round"/>
<line x1="0.854545" y1="-0.854545" x2="8.06813" y2="-0.854545" transform="matrix(-0.866025 0.5 0.5 0.866025 24.1641 179.569)" stroke="#A295CE" stroke-width="1.70909" stroke-linecap="round"/>
<line x1="0.854545" y1="-0.854545" x2="8.06813" y2="-0.854545" transform="matrix(-0.906308 0.422618 0.422618 0.906308 233.879 70.8371)" stroke="#A295CE" stroke-width="1.70909" stroke-linecap="round"/>
<line x1="0.854545" y1="-0.854545" x2="8.06813" y2="-0.854545" transform="matrix(-0.906308 0.422618 0.422618 0.906308 19.5814 170.766)" stroke="#A295CE" stroke-width="1.70909" stroke-linecap="round"/>
<line x1="0.854545" y1="-0.854545" x2="8.06813" y2="-0.854545" transform="matrix(-0.939693 0.34202 0.34202 0.939693 237.975 80.7254)" stroke="#A295CE" stroke-width="1.70909" stroke-linecap="round"/>
<line x1="0.854545" y1="-0.854545" x2="8.06813" y2="-0.854545" transform="matrix(-0.939693 0.34202 0.34202 0.939693 15.7834 161.596)" stroke="#A295CE" stroke-width="1.70909" stroke-linecap="round"/>
<line x1="0.854545" y1="-0.854545" x2="8.06813" y2="-0.854545" transform="matrix(-0.965926 0.258819 0.258819 0.965926 241.193 90.9331)" stroke="#A295CE" stroke-width="1.70909" stroke-linecap="round"/>
<line x1="0.854545" y1="-0.854545" x2="8.06813" y2="-0.854545" transform="matrix(-0.965926 0.258819 0.258819 0.965926 12.7992 152.131)" stroke="#A295CE" stroke-width="1.70909" stroke-linecap="round"/>
<line x1="0.854545" y1="-0.854545" x2="8.06813" y2="-0.854545" transform="matrix(-0.984808 0.173648 0.173648 0.984808 243.51 101.382)" stroke="#A295CE" stroke-width="1.70909" stroke-linecap="round"/>
<line x1="0.854545" y1="-0.854545" x2="8.06813" y2="-0.854545" transform="matrix(-0.984808 0.173648 0.173648 0.984808 10.6511 142.442)" stroke="#A295CE" stroke-width="1.70909" stroke-linecap="round"/>
<line x1="0.854545" y1="-0.854545" x2="8.06813" y2="-0.854545" transform="matrix(-0.996195 0.0871558 0.0871558 0.996195 244.907 111.994)" stroke="#A295CE" stroke-width="1.70909" stroke-linecap="round"/>
<line x1="0.854545" y1="-0.854545" x2="8.06813" y2="-0.854545" transform="matrix(-0.996195 0.0871558 0.0871558 0.996195 9.3558 132.602)" stroke="#A295CE" stroke-width="1.70909" stroke-linecap="round"/>
<line x1="0.854545" y1="-0.854545" x2="8.06813" y2="-0.854545" transform="matrix(-1 4.37114e-08 4.37114e-08 1 245.374 122.687)" stroke="#A295CE" stroke-width="1.70909" stroke-linecap="round"/>
<line x1="0.854545" y1="-0.854545" x2="8.06813" y2="-0.854545" transform="matrix(-1 4.37114e-08 4.37114e-08 1 8.92264 122.687)" stroke="#A295CE" stroke-width="1.70909" stroke-linecap="round"/>
</mask>
<g mask="url(#mask0)">
<circle cx="123.655" cy="123.209" r="123.209" transform="rotate(-150 123.655 123.209)" fill="url(#paint0_angular)"/>
</g>
<defs>
<radialGradient id="paint0_angular" cx="0" cy="0" r="1" gradientUnits="userSpaceOnUse" gradientTransform="translate(123.655 123.209) rotate(90) scale(123.209)">
<stop stop-color="white" stop-opacity="0"/>
<stop offset="1" stop-color="white"/>
</radialGradient>
</defs>
</svg>
