<svg width="161" height="69" viewBox="0 0 161 69" fill="none" xmlns="http://www.w3.org/2000/svg">
<g filter="url(#filter0_d)">
<path d="M26.9049 32.392C26.6809 32.392 26.3609 32.36 25.9449 32.296C25.5609 32.232 25.2569 32.168 25.0329 32.104L15.4809 3.496L12.4089 2.824C12.4089 2.376 12.4729 2.024 12.6009 1.768C12.7289 1.48 12.9689 1.224 13.3209 1H22.9209C22.9209 2.056 22.6649 2.632 22.1529 2.728L19.5609 3.4L27.8169 28.168L34.8249 4.888H36.6969L44.3289 28.216L51.8649 3.544L48.3129 2.824C48.3129 2.376 48.3609 2.024 48.4569 1.768C48.5849 1.512 48.8249 1.272 49.1769 1.048H57.2889C57.2889 2.072 57.0329 2.648 56.5209 2.776L54.2169 3.4L45.7689 31.096C45.6089 31.576 45.2889 31.912 44.8089 32.104C44.3609 32.296 43.9129 32.392 43.4649 32.392C43.2409 32.392 42.9209 32.36 42.5049 32.296C42.1209 32.232 41.8169 32.168 41.5929 32.104L34.9689 11.848L29.2089 31.096C29.0489 31.576 28.7289 31.912 28.2489 32.104C27.7689 32.296 27.3209 32.392 26.9049 32.392Z" fill="#14571B"/>
<path d="M26.9049 32.392C26.6809 32.392 26.3609 32.36 25.9449 32.296C25.5609 32.232 25.2569 32.168 25.0329 32.104L15.4809 3.496L12.4089 2.824C12.4089 2.376 12.4729 2.024 12.6009 1.768C12.7289 1.48 12.9689 1.224 13.3209 1H22.9209C22.9209 2.056 22.6649 2.632 22.1529 2.728L19.5609 3.4L27.8169 28.168L34.8249 4.888H36.6969L44.3289 28.216L51.8649 3.544L48.3129 2.824C48.3129 2.376 48.3609 2.024 48.4569 1.768C48.5849 1.512 48.8249 1.272 49.1769 1.048H57.2889C57.2889 2.072 57.0329 2.648 56.5209 2.776L54.2169 3.4L45.7689 31.096C45.6089 31.576 45.2889 31.912 44.8089 32.104C44.3609 32.296 43.9129 32.392 43.4649 32.392C43.2409 32.392 42.9209 32.36 42.5049 32.296C42.1209 32.232 41.8169 32.168 41.5929 32.104L34.9689 11.848L29.2089 31.096C29.0489 31.576 28.7289 31.912 28.2489 32.104C27.7689 32.296 27.3209 32.392 26.9049 32.392Z" fill="url(#paint0_linear)" fill-opacity="0.2"/>
<path d="M62.5884 31.816C62.5884 30.824 62.8444 30.248 63.3564 30.088L65.8524 29.416V3.544L62.5884 2.824C62.5884 2.376 62.6524 2.024 62.7804 1.768C62.9084 1.512 63.1484 1.272 63.5004 1.048H73.1484C73.1484 2.072 72.8924 2.648 72.3804 2.776L69.7884 3.448V29.32L73.1484 30.04C73.1484 30.456 73.0844 30.792 72.9564 31.048C72.8604 31.304 72.6364 31.56 72.2844 31.816H62.5884Z" fill="#14571B"/>
<path d="M62.5884 31.816C62.5884 30.824 62.8444 30.248 63.3564 30.088L65.8524 29.416V3.544L62.5884 2.824C62.5884 2.376 62.6524 2.024 62.7804 1.768C62.9084 1.512 63.1484 1.272 63.5004 1.048H73.1484C73.1484 2.072 72.8924 2.648 72.3804 2.776L69.7884 3.448V29.32L73.1484 30.04C73.1484 30.456 73.0844 30.792 72.9564 31.048C72.8604 31.304 72.6364 31.56 72.2844 31.816H62.5884Z" fill="url(#paint1_linear)" fill-opacity="0.2"/>
<path d="M87.0485 31.816C87.0485 30.792 87.3045 30.216 87.8165 30.088L91.1285 29.224V3.64L82.8245 3.064L81.7205 6.76C81.5925 7.336 81.0325 7.624 80.0405 7.624V1.048H106.153V7.624C105.161 7.624 104.569 7.336 104.377 6.76L103.368 3.064L95.0645 3.64V29.224L99.7685 30.04C99.7685 30.456 99.7045 30.792 99.5765 31.048C99.4805 31.304 99.2565 31.56 98.9045 31.816H87.0485Z" fill="#14571B"/>
<path d="M87.0485 31.816C87.0485 30.792 87.3045 30.216 87.8165 30.088L91.1285 29.224V3.64L82.8245 3.064L81.7205 6.76C81.5925 7.336 81.0325 7.624 80.0405 7.624V1.048H106.153V7.624C105.161 7.624 104.569 7.336 104.377 6.76L103.368 3.064L95.0645 3.64V29.224L99.7685 30.04C99.7685 30.456 99.7045 30.792 99.5765 31.048C99.4805 31.304 99.2565 31.56 98.9045 31.816H87.0485Z" fill="url(#paint2_linear)" fill-opacity="0.2"/>
<path d="M113.163 31.816C113.163 30.824 113.419 30.248 113.931 30.088L116.427 29.416V3.544L113.163 2.824C113.163 2.376 113.227 2.024 113.355 1.768C113.483 1.512 113.723 1.272 114.075 1.048H123.723C123.723 2.072 123.467 2.648 122.955 2.776L120.363 3.448V15.16H135.963V3.544L132.651 2.824C132.651 2.376 132.715 2.024 132.843 1.768C132.971 1.512 133.211 1.272 133.563 1.048H143.403C143.403 2.072 143.147 2.648 142.635 2.776L139.899 3.448V29.272L143.403 30.04C143.403 30.456 143.339 30.792 143.211 31.048C143.115 31.304 142.875 31.56 142.491 31.816H132.651C132.651 30.824 132.907 30.248 133.419 30.088L135.963 29.416V17.272H120.363V29.32L123.723 30.04C123.723 30.456 123.659 30.792 123.531 31.048C123.435 31.304 123.211 31.56 122.859 31.816H113.163Z" fill="#14571B"/>
<path d="M113.163 31.816C113.163 30.824 113.419 30.248 113.931 30.088L116.427 29.416V3.544L113.163 2.824C113.163 2.376 113.227 2.024 113.355 1.768C113.483 1.512 113.723 1.272 114.075 1.048H123.723C123.723 2.072 123.467 2.648 122.955 2.776L120.363 3.448V15.16H135.963V3.544L132.651 2.824C132.651 2.376 132.715 2.024 132.843 1.768C132.971 1.512 133.211 1.272 133.563 1.048H143.403C143.403 2.072 143.147 2.648 142.635 2.776L139.899 3.448V29.272L143.403 30.04C143.403 30.456 143.339 30.792 143.211 31.048C143.115 31.304 142.875 31.56 142.491 31.816H132.651C132.651 30.824 132.907 30.248 133.419 30.088L135.963 29.416V17.272H120.363V29.32L123.723 30.04C123.723 30.456 123.659 30.792 123.531 31.048C123.435 31.304 123.211 31.56 122.859 31.816H113.163Z" fill="url(#paint3_linear)" fill-opacity="0.2"/>
<path d="M15.48 63.448C15.416 63.448 15.32 63.4373 15.192 63.416C15.0853 63.3947 15.0107 63.3733 14.968 63.352L8.344 45.56L6.904 61.688L9.304 62.136C9.304 62.6907 9.112 63.096 8.728 63.352H3C3 62.648 3.17067 62.264 3.512 62.2L5.368 61.752L6.968 44.504L4.728 44.024C4.728 43.7253 4.76 43.4907 4.824 43.32C4.90933 43.1493 5.06933 42.9893 5.304 42.84H10.168L16.088 58.84L21.944 42.84H27.288C27.288 43.5013 27.1173 43.8853 26.776 43.992L25.112 44.376L26.488 61.656L28.824 62.136C28.824 62.4347 28.7813 62.68 28.696 62.872C28.632 63.0427 28.4827 63.2027 28.248 63.352H21.528C21.528 62.648 21.6987 62.264 22.04 62.2L23.928 61.72L22.584 45.4L16.28 62.808C16.1947 63.0427 16.0667 63.2133 15.896 63.32C15.7467 63.4053 15.608 63.448 15.48 63.448Z" fill="#14571B"/>
<path d="M15.48 63.448C15.416 63.448 15.32 63.4373 15.192 63.416C15.0853 63.3947 15.0107 63.3733 14.968 63.352L8.344 45.56L6.904 61.688L9.304 62.136C9.304 62.6907 9.112 63.096 8.728 63.352H3C3 62.648 3.17067 62.264 3.512 62.2L5.368 61.752L6.968 44.504L4.728 44.024C4.728 43.7253 4.76 43.4907 4.824 43.32C4.90933 43.1493 5.06933 42.9893 5.304 42.84H10.168L16.088 58.84L21.944 42.84H27.288C27.288 43.5013 27.1173 43.8853 26.776 43.992L25.112 44.376L26.488 61.656L28.824 62.136C28.824 62.4347 28.7813 62.68 28.696 62.872C28.632 63.0427 28.4827 63.2027 28.248 63.352H21.528C21.528 62.648 21.6987 62.264 22.04 62.2L23.928 61.72L22.584 45.4L16.28 62.808C16.1947 63.0427 16.0667 63.2133 15.896 63.32C15.7467 63.4053 15.608 63.448 15.48 63.448Z" fill="url(#paint4_linear)" fill-opacity="0.2"/>
<path d="M33.7607 63.352C33.7607 62.6907 33.9314 62.3067 34.2728 62.2L35.9368 61.752V44.504L33.7607 44.024C33.7607 43.7253 33.8034 43.4907 33.8888 43.32C33.9741 43.1493 34.1341 42.9893 34.3688 42.84H40.8008C40.8008 43.5227 40.6301 43.9067 40.2888 43.992L38.5607 44.44V61.688L40.8008 62.168C40.8008 62.4453 40.7581 62.6693 40.6728 62.84C40.6088 63.0107 40.4594 63.1813 40.2248 63.352H33.7607Z" fill="#14571B"/>
<path d="M33.7607 63.352C33.7607 62.6907 33.9314 62.3067 34.2728 62.2L35.9368 61.752V44.504L33.7607 44.024C33.7607 43.7253 33.8034 43.4907 33.8888 43.32C33.9741 43.1493 34.1341 42.9893 34.3688 42.84H40.8008C40.8008 43.5227 40.6301 43.9067 40.2888 43.992L38.5607 44.44V61.688L40.8008 62.168C40.8008 62.4453 40.7581 62.6693 40.6728 62.84C40.6088 63.0107 40.4594 63.1813 40.2248 63.352H33.7607Z" fill="url(#paint5_linear)" fill-opacity="0.2"/>
<path d="M46.2595 63.352C46.2595 62.6907 46.4302 62.3067 46.7715 62.2L48.4355 61.752V44.504L46.2595 44.024C46.2595 43.7253 46.3022 43.4907 46.3875 43.32C46.4728 43.1493 46.6328 42.9893 46.8675 42.84H53.4275C53.4275 43.5013 53.2568 43.8853 52.9155 43.992L51.0595 44.472V61.496L59.0915 62.008L59.6995 58.616C60.2755 58.616 60.7128 58.7867 61.0115 59.128V63.352H46.2595Z" fill="#14571B"/>
<path d="M46.2595 63.352C46.2595 62.6907 46.4302 62.3067 46.7715 62.2L48.4355 61.752V44.504L46.2595 44.024C46.2595 43.7253 46.3022 43.4907 46.3875 43.32C46.4728 43.1493 46.6328 42.9893 46.8675 42.84H53.4275C53.4275 43.5013 53.2568 43.8853 52.9155 43.992L51.0595 44.472V61.496L59.0915 62.008L59.6995 58.616C60.2755 58.616 60.7128 58.7867 61.0115 59.128V63.352H46.2595Z" fill="url(#paint6_linear)" fill-opacity="0.2"/>
<path d="M65.6645 63.352C65.6645 62.6907 65.8352 62.3067 66.1765 62.2L67.8405 61.752V44.504L65.6645 44.024C65.6645 43.7253 65.7072 43.4907 65.7925 43.32C65.8778 43.1493 66.0378 42.9893 66.2725 42.84H72.7045C72.7045 43.5227 72.5338 43.9067 72.1925 43.992L70.4645 44.44V61.688L72.7045 62.168C72.7045 62.4453 72.6618 62.6693 72.5765 62.84C72.5125 63.0107 72.3632 63.1813 72.1285 63.352H65.6645Z" fill="#14571B"/>
<path d="M65.6645 63.352C65.6645 62.6907 65.8352 62.3067 66.1765 62.2L67.8405 61.752V44.504L65.6645 44.024C65.6645 43.7253 65.7072 43.4907 65.7925 43.32C65.8778 43.1493 66.0378 42.9893 66.2725 42.84H72.7045C72.7045 43.5227 72.5338 43.9067 72.1925 43.992L70.4645 44.44V61.688L72.7045 62.168C72.7045 62.4453 72.6618 62.6693 72.5765 62.84C72.5125 63.0107 72.3632 63.1813 72.1285 63.352H65.6645Z" fill="url(#paint7_linear)" fill-opacity="0.2"/>
<path d="M81.9713 63.352C81.9713 62.6693 82.1419 62.2853 82.4832 62.2L84.6912 61.624V44.568L79.1553 44.184L78.4193 46.648C78.3339 47.032 77.9606 47.224 77.2992 47.224V42.84H94.7073V47.224C94.0459 47.224 93.6512 47.032 93.5232 46.648L92.8512 44.184L87.3152 44.568V61.624L90.4512 62.168C90.4512 62.4453 90.4086 62.6693 90.3232 62.84C90.2592 63.0107 90.1099 63.1813 89.8753 63.352H81.9713Z" fill="#14571B"/>
<path d="M81.9713 63.352C81.9713 62.6693 82.1419 62.2853 82.4832 62.2L84.6912 61.624V44.568L79.1553 44.184L78.4193 46.648C78.3339 47.032 77.9606 47.224 77.2992 47.224V42.84H94.7073V47.224C94.0459 47.224 93.6512 47.032 93.5232 46.648L92.8512 44.184L87.3152 44.568V61.624L90.4512 62.168C90.4512 62.4453 90.4086 62.6693 90.3232 62.84C90.2592 63.0107 90.1099 63.1813 89.8753 63.352H81.9713Z" fill="url(#paint8_linear)" fill-opacity="0.2"/>
<path d="M95.5202 63.352C95.5202 62.6907 95.6909 62.3067 96.0322 62.2L97.3763 61.784L104.224 43C104.331 42.7653 104.523 42.6053 104.8 42.52C105.099 42.4347 105.355 42.392 105.568 42.392C105.846 42.392 106.123 42.424 106.4 42.488L113.888 61.72L115.968 62.168C115.968 62.4453 115.926 62.6693 115.84 62.84C115.755 63.0107 115.595 63.1813 115.36 63.352H108.928C108.928 62.6907 109.099 62.3067 109.44 62.2L111.136 61.752L109.056 56.44H100.864L98.9442 61.656L101.408 62.168C101.408 62.4453 101.366 62.6693 101.28 62.84C101.216 63.0107 101.046 63.1813 100.768 63.352H95.5202ZM101.344 55.096H108.512L104.8 45.624L101.344 55.096Z" fill="#14571B"/>
<path d="M95.5202 63.352C95.5202 62.6907 95.6909 62.3067 96.0322 62.2L97.3763 61.784L104.224 43C104.331 42.7653 104.523 42.6053 104.8 42.52C105.099 42.4347 105.355 42.392 105.568 42.392C105.846 42.392 106.123 42.424 106.4 42.488L113.888 61.72L115.968 62.168C115.968 62.4453 115.926 62.6693 115.84 62.84C115.755 63.0107 115.595 63.1813 115.36 63.352H108.928C108.928 62.6907 109.099 62.3067 109.44 62.2L111.136 61.752L109.056 56.44H100.864L98.9442 61.656L101.408 62.168C101.408 62.4453 101.366 62.6693 101.28 62.84C101.216 63.0107 101.046 63.1813 100.768 63.352H95.5202ZM101.344 55.096H108.512L104.8 45.624L101.344 55.096Z" fill="url(#paint9_linear)" fill-opacity="0.2"/>
<path d="M119.473 63.352C119.473 62.6907 119.644 62.3067 119.985 62.2L121.681 61.752V44.536L119.537 44.024C119.537 43.448 119.719 43.0533 120.081 42.84H128.273C129.66 42.84 130.812 43.0853 131.729 43.576C132.668 44.0453 133.372 44.6853 133.841 45.496C134.332 46.2853 134.577 47.16 134.577 48.12C134.577 49.3573 134.183 50.5093 133.393 51.576C132.625 52.6427 131.548 53.432 130.161 53.944C131.015 55.3733 131.889 56.696 132.785 57.912C133.703 59.128 134.567 60.1627 135.377 61.016C136.209 61.848 136.945 62.424 137.585 62.744C137.351 63 137.063 63.224 136.721 63.416C136.401 63.608 136.06 63.704 135.697 63.704C135.1 63.704 134.364 63.3413 133.489 62.616C132.615 61.8693 131.697 60.8027 130.737 59.416C129.777 58.0293 128.86 56.3547 127.985 54.392C127.708 54.4133 127.42 54.424 127.121 54.424C126.695 54.424 126.236 54.4027 125.745 54.36C125.255 54.3173 124.785 54.2427 124.337 54.136V61.688L126.737 62.168C126.737 62.488 126.695 62.7333 126.609 62.904C126.545 63.0747 126.396 63.224 126.161 63.352H119.473ZM127.217 44.248C126.684 44.248 126.172 44.28 125.681 44.344C125.191 44.408 124.743 44.4827 124.337 44.568V52.664C124.7 52.7493 125.127 52.8133 125.617 52.856C126.108 52.8987 126.599 52.92 127.089 52.92C128.647 52.92 129.799 52.4827 130.545 51.608C131.313 50.7333 131.697 49.7093 131.697 48.536C131.697 47.1493 131.292 46.0933 130.481 45.368C129.692 44.6213 128.604 44.248 127.217 44.248Z" fill="#14571B"/>
<path d="M119.473 63.352C119.473 62.6907 119.644 62.3067 119.985 62.2L121.681 61.752V44.536L119.537 44.024C119.537 43.448 119.719 43.0533 120.081 42.84H128.273C129.66 42.84 130.812 43.0853 131.729 43.576C132.668 44.0453 133.372 44.6853 133.841 45.496C134.332 46.2853 134.577 47.16 134.577 48.12C134.577 49.3573 134.183 50.5093 133.393 51.576C132.625 52.6427 131.548 53.432 130.161 53.944C131.015 55.3733 131.889 56.696 132.785 57.912C133.703 59.128 134.567 60.1627 135.377 61.016C136.209 61.848 136.945 62.424 137.585 62.744C137.351 63 137.063 63.224 136.721 63.416C136.401 63.608 136.06 63.704 135.697 63.704C135.1 63.704 134.364 63.3413 133.489 62.616C132.615 61.8693 131.697 60.8027 130.737 59.416C129.777 58.0293 128.86 56.3547 127.985 54.392C127.708 54.4133 127.42 54.424 127.121 54.424C126.695 54.424 126.236 54.4027 125.745 54.36C125.255 54.3173 124.785 54.2427 124.337 54.136V61.688L126.737 62.168C126.737 62.488 126.695 62.7333 126.609 62.904C126.545 63.0747 126.396 63.224 126.161 63.352H119.473ZM127.217 44.248C126.684 44.248 126.172 44.28 125.681 44.344C125.191 44.408 124.743 44.4827 124.337 44.568V52.664C124.7 52.7493 125.127 52.8133 125.617 52.856C126.108 52.8987 126.599 52.92 127.089 52.92C128.647 52.92 129.799 52.4827 130.545 51.608C131.313 50.7333 131.697 49.7093 131.697 48.536C131.697 47.1493 131.292 46.0933 130.481 45.368C129.692 44.6213 128.604 44.248 127.217 44.248Z" fill="url(#paint10_linear)" fill-opacity="0.2"/>
<path d="M144.288 63.352C144.288 62.6907 144.459 62.3067 144.8 62.2L146.656 61.752V55.288L140.096 44.504L138.08 44.024C138.08 43.7253 138.123 43.4907 138.208 43.32C138.294 43.1493 138.454 42.9893 138.688 42.84H145.28C145.28 43.5013 145.11 43.8853 144.768 43.992L143.104 44.376L148.608 53.496L153.248 44.472L151.136 44.024C151.136 43.7253 151.168 43.4907 151.232 43.32C151.318 43.1493 151.478 42.9893 151.712 42.84H157.248C157.248 43.5227 157.078 43.9067 156.736 43.992L154.912 44.44L149.28 55.448V61.656L151.744 62.168C151.744 62.4453 151.712 62.6693 151.648 62.84C151.584 63.0107 151.435 63.1813 151.2 63.352H144.288Z" fill="#14571B"/>
<path d="M144.288 63.352C144.288 62.6907 144.459 62.3067 144.8 62.2L146.656 61.752V55.288L140.096 44.504L138.08 44.024C138.08 43.7253 138.123 43.4907 138.208 43.32C138.294 43.1493 138.454 42.9893 138.688 42.84H145.28C145.28 43.5013 145.11 43.8853 144.768 43.992L143.104 44.376L148.608 53.496L153.248 44.472L151.136 44.024C151.136 43.7253 151.168 43.4907 151.232 43.32C151.318 43.1493 151.478 42.9893 151.712 42.84H157.248C157.248 43.5227 157.078 43.9067 156.736 43.992L154.912 44.44L149.28 55.448V61.656L151.744 62.168C151.744 62.4453 151.712 62.6693 151.648 62.84C151.584 63.0107 151.435 63.1813 151.2 63.352H144.288Z" fill="url(#paint11_linear)" fill-opacity="0.2"/>
</g>
<defs>
<filter id="filter0_d" x="0" y="0" width="160.248" height="68.704" filterUnits="userSpaceOnUse" color-interpolation-filters="sRGB">
<feFlood flood-opacity="0" result="BackgroundImageFix"/>
<feColorMatrix in="SourceAlpha" type="matrix" values="0 0 0 0 0 0 0 0 0 0 0 0 0 0 0 0 0 0 127 0" result="hardAlpha"/>
<feOffset dy="2"/>
<feGaussianBlur stdDeviation="1.5"/>
<feComposite in2="hardAlpha" operator="out"/>
<feColorMatrix type="matrix" values="0 0 0 0 0 0 0 0 0 0 0 0 0 0 0 0 0 0 0.25 0"/>
<feBlend mode="normal" in2="BackgroundImageFix" result="effect1_dropShadow"/>
<feBlend mode="normal" in="SourceGraphic" in2="effect1_dropShadow" result="shape"/>
</filter>
<linearGradient id="paint0_linear" x1="79.3636" y1="-6.184" x2="79.3636" y2="41.816" gradientUnits="userSpaceOnUse">
<stop stop-color="#562E18"/>
<stop offset="0.0001" stop-color="#57301B" stop-opacity="0.953125"/>
<stop offset="1" stop-opacity="0"/>
</linearGradient>
<linearGradient id="paint1_linear" x1="79.3636" y1="-6.184" x2="79.3636" y2="41.816" gradientUnits="userSpaceOnUse">
<stop stop-color="#562E18"/>
<stop offset="0.0001" stop-color="#57301B" stop-opacity="0.953125"/>
<stop offset="1" stop-opacity="0"/>
</linearGradient>
<linearGradient id="paint2_linear" x1="79.3636" y1="-6.184" x2="79.3636" y2="41.816" gradientUnits="userSpaceOnUse">
<stop stop-color="#562E18"/>
<stop offset="0.0001" stop-color="#57301B" stop-opacity="0.953125"/>
<stop offset="1" stop-opacity="0"/>
</linearGradient>
<linearGradient id="paint3_linear" x1="79.3636" y1="-6.184" x2="79.3636" y2="41.816" gradientUnits="userSpaceOnUse">
<stop stop-color="#562E18"/>
<stop offset="0.0001" stop-color="#57301B" stop-opacity="0.953125"/>
<stop offset="1" stop-opacity="0"/>
</linearGradient>
<linearGradient id="paint4_linear" x1="79.3636" y1="30.352" x2="79.3636" y2="78.352" gradientUnits="userSpaceOnUse">
<stop stop-color="#562E18"/>
<stop offset="0.0001" stop-color="#57301B" stop-opacity="0.953125"/>
<stop offset="1" stop-opacity="0"/>
</linearGradient>
<linearGradient id="paint5_linear" x1="79.3636" y1="30.352" x2="79.3636" y2="78.352" gradientUnits="userSpaceOnUse">
<stop stop-color="#562E18"/>
<stop offset="0.0001" stop-color="#57301B" stop-opacity="0.953125"/>
<stop offset="1" stop-opacity="0"/>
</linearGradient>
<linearGradient id="paint6_linear" x1="79.3636" y1="30.352" x2="79.3636" y2="78.352" gradientUnits="userSpaceOnUse">
<stop stop-color="#562E18"/>
<stop offset="0.0001" stop-color="#57301B" stop-opacity="0.953125"/>
<stop offset="1" stop-opacity="0"/>
</linearGradient>
<linearGradient id="paint7_linear" x1="79.3636" y1="30.352" x2="79.3636" y2="78.352" gradientUnits="userSpaceOnUse">
<stop stop-color="#562E18"/>
<stop offset="0.0001" stop-color="#57301B" stop-opacity="0.953125"/>
<stop offset="1" stop-opacity="0"/>
</linearGradient>
<linearGradient id="paint8_linear" x1="79.3636" y1="30.352" x2="79.3636" y2="78.352" gradientUnits="userSpaceOnUse">
<stop stop-color="#562E18"/>
<stop offset="0.0001" stop-color="#57301B" stop-opacity="0.953125"/>
<stop offset="1" stop-opacity="0"/>
</linearGradient>
<linearGradient id="paint9_linear" x1="79.3636" y1="30.352" x2="79.3636" y2="78.352" gradientUnits="userSpaceOnUse">
<stop stop-color="#562E18"/>
<stop offset="0.0001" stop-color="#57301B" stop-opacity="0.953125"/>
<stop offset="1" stop-opacity="0"/>
</linearGradient>
<linearGradient id="paint10_linear" x1="79.3636" y1="30.352" x2="79.3636" y2="78.352" gradientUnits="userSpaceOnUse">
<stop stop-color="#562E18"/>
<stop offset="0.0001" stop-color="#57301B" stop-opacity="0.953125"/>
<stop offset="1" stop-opacity="0"/>
</linearGradient>
<linearGradient id="paint11_linear" x1="79.3636" y1="30.352" x2="79.3636" y2="78.352" gradientUnits="userSpaceOnUse">
<stop stop-color="#562E18"/>
<stop offset="0.0001" stop-color="#57301B" stop-opacity="0.953125"/>
<stop offset="1" stop-opacity="0"/>
</linearGradient>
</defs>
</svg>
