<svg width="107" height="94" viewBox="0 0 107 94" fill="none" xmlns="http://www.w3.org/2000/svg">
<path d="M15.2269 30.9675C14.6616 36.3253 15.3675 48.239 17.3391 66.7059C26.2209 55.2872 31.5788 48.1687 33.4125 45.3478C36.1603 41.1178 49.6941 19.1268 49.0612 22.0856C48.6366 24.06 48.1444 28.9959 47.5791 36.8906L54.135 34.5618C54.4163 30.7565 54.7003 27.3731 54.9816 24.4115C55.2628 21.4528 56.0391 15.9543 57.3075 7.91904C51.5278 13.6987 48.0038 17.4337 46.7353 19.1268C44.8313 21.6637 39.9684 29.0662 37.0069 33.929C35.0325 37.1718 30.0994 44.22 22.2047 55.0762C21.9206 50.8462 21.7097 46.4053 21.5691 41.7534C21.3581 34.7756 21.5691 34.14 22.2047 28.4306C22.6266 24.6253 25.5881 18.5615 31.0866 10.245C23.895 11.0915 18.8212 11.865 15.8597 12.5709C11.4187 13.6284 6.13125 17.4337 4.01906 20.3953C1.90406 23.354 0 28.0087 0 32.2359C0 36.4659 2.96156 39.8493 5.07656 36.8906C7.18875 33.929 4.65188 33.7181 4.01906 29.2772C3.38344 24.8362 6.345 21.6637 10.1503 18.2803C12.6872 16.0247 16.7062 14.5453 22.2047 13.8393C18.1153 19.9003 15.7894 25.6125 15.2269 30.9675Z" fill="white" fill-opacity="0.54"/>
<path d="M15.2269 30.9675C14.6616 36.3253 15.3675 48.239 17.3391 66.7059C26.2209 55.2872 31.5788 48.1687 33.4125 45.3478C36.1603 41.1178 49.6941 19.1268 49.0612 22.0856C48.6366 24.06 48.1444 28.9959 47.5791 36.8906L54.135 34.5618C54.4163 30.7565 54.7003 27.3731 54.9816 24.4115C55.2628 21.4528 56.0391 15.9543 57.3075 7.91904C51.5278 13.6987 48.0038 17.4337 46.7353 19.1268C44.8313 21.6637 39.9684 29.0662 37.0069 33.929C35.0325 37.1718 30.0994 44.22 22.2047 55.0762C21.9206 50.8462 21.7097 46.4053 21.5691 41.7534C21.3581 34.7756 21.5691 34.14 22.2047 28.4306C22.6266 24.6253 25.5881 18.5615 31.0866 10.245C23.895 11.0915 18.8212 11.865 15.8597 12.5709C11.4187 13.6284 6.13125 17.4337 4.01906 20.3953C1.90406 23.354 0 28.0087 0 32.2359C0 36.4659 2.96156 39.8493 5.07656 36.8906C7.18875 33.929 4.65188 33.7181 4.01906 29.2772C3.38344 24.8362 6.345 21.6637 10.1503 18.2803C12.6872 16.0247 16.7062 14.5453 22.2047 13.8393C18.1153 19.9003 15.7894 25.6125 15.2269 30.9675Z" fill="white" fill-opacity="0.54"/>
<path d="M41.8697 46.1943C36.1603 52.3256 37.6397 54.6515 39.9684 58.2487C42.2944 61.8431 42.2944 63.5334 39.9684 64.5909C37.6397 65.6484 34.0453 60.3609 34.47 54.6515C34.8919 48.9422 40.6012 41.9643 46.3106 39.6384C50.1187 38.0887 56.9559 37.0312 66.8222 36.4659L59.2116 45.5587L59.8444 39.6384C51.6684 39.9197 45.6778 42.105 41.8697 46.1943Z" fill="white" fill-opacity="0.54"/>
<path d="M41.8697 46.1943C36.1603 52.3256 37.6397 54.6515 39.9684 58.2487C42.2944 61.8431 42.2944 63.5334 39.9684 64.5909C37.6397 65.6484 34.0453 60.3609 34.47 54.6515C34.8919 48.9422 40.6012 41.9643 46.3106 39.6384C50.1187 38.0887 56.9559 37.0312 66.8222 36.4659L59.2116 45.5587L59.8444 39.6384C51.6684 39.9197 45.6778 42.105 41.8697 46.1943Z" fill="white" fill-opacity="0.54"/>
<path d="M53.5022 56.1337C61.6781 46.5459 67.6687 39.0731 71.4769 33.7181C77.1862 25.6828 83.5284 12.36 81.2025 8.76559C78.8765 5.1684 79.0875 1.57403 81.2025 0.941214C83.3175 0.305589 86.279 1.36309 86.49 8.76559C86.7009 16.1653 76.3397 32.4497 71.4769 39.4275C68.234 44.0793 59.8444 53.7375 46.3106 68.399L47.3681 44.5012L53.5022 42.8109V56.1337Z" fill="white" fill-opacity="0.54"/>
<path d="M53.5022 56.1337C61.6781 46.5459 67.6687 39.0731 71.4769 33.7181C77.1862 25.6828 83.5284 12.36 81.2025 8.76559C78.8765 5.1684 79.0875 1.57403 81.2025 0.941214C83.3175 0.305589 86.279 1.36309 86.49 8.76559C86.7009 16.1653 76.3397 32.4497 71.4769 39.4275C68.234 44.0793 59.8444 53.7375 46.3106 68.399L47.3681 44.5012L53.5022 42.8109V56.1337Z" fill="white" fill-opacity="0.54"/>
<path d="M60.6909 56.7665L56.4609 61.2075L60.6909 56.7665Z" fill="white" fill-opacity="0.54"/>
<path d="M60.6909 56.7665L56.4609 61.2075" stroke="black" stroke-width="0.28125"/>
<path d="M56.4609 61.2075C51.1734 81.2972 46.0997 84.8915 41.8697 87.0065C37.6397 89.1215 36.1603 87.4284 33.2016 87.0065C31.2272 86.7253 30.0291 87.5015 29.6044 89.3325C29.8884 92.0128 31.4972 93.4218 34.4334 93.5625C38.8406 93.7734 45.2531 89.5434 50.6278 83.4121C54.2137 79.3228 57.5662 70.4409 60.6909 56.7665" fill="white" fill-opacity="0.54"/>
<path d="M56.4609 61.2075C51.1734 81.2972 46.0997 84.8915 41.8697 87.0065C37.6397 89.1215 36.1603 87.4284 33.2016 87.0065C31.2272 86.7253 30.0291 87.5015 29.6044 89.3325C29.8884 92.0128 31.4972 93.4218 34.4334 93.5625C38.8406 93.7734 45.2531 89.5434 50.6278 83.4121C54.2137 79.3228 57.5662 70.4409 60.6909 56.7665" fill="white" fill-opacity="0.54"/>
<path d="M66.4031 91.8862L94.9669 48.3065L84.4491 85.3911C83.6962 88.0458 85.7939 90.6475 88.5479 90.4746L93.3666 90.1722H101.482C102.014 90.1722 102.49 89.842 102.677 89.3438C103.273 87.7548 102.182 86.0374 100.49 85.902L92.6628 85.2759C92.0082 85.2235 91.5858 84.5513 91.8041 83.932C104.02 49.2665 108.261 33.9876 105.334 33.7097C102.372 33.4256 91.0884 47.46 71.4825 75.81L69.1566 46.1915L63.0225 53.1722L66.4031 91.8862Z" fill="white" fill-opacity="0.54"/>
<path d="M66.4031 91.8862L94.9669 48.3065L82.9069 90.8287H101.315L102.372 88.2918L90.9478 87.4453C103.5 51.9037 108.295 33.9909 105.334 33.7097C102.372 33.4256 91.0884 47.46 71.4825 75.81L69.1566 46.1915L63.0225 53.1722L66.4031 91.8862Z" fill="white" fill-opacity="0.54"/>
</svg>
