<svg width="107" height="93" viewBox="0 0 107 93" fill="none" xmlns="http://www.w3.org/2000/svg">
<path d="M15.2269 30.1825C14.6616 35.5403 15.3675 47.454 17.3391 65.9209C26.2209 54.5022 31.5788 47.3837 33.4125 44.5628C36.1603 40.3328 49.6941 18.3418 49.0612 21.3006C48.6366 23.275 48.1444 28.2109 47.5791 36.1056L54.135 33.7768C54.4163 29.9715 54.7003 26.5881 54.9816 23.6265C55.2628 20.6678 56.0391 15.1693 57.3075 7.13403C51.5278 12.9137 48.0038 16.6487 46.7353 18.3418C44.8313 20.8787 39.9684 28.2812 37.0069 33.144C35.0325 36.3868 30.0994 43.435 22.2047 54.2912C21.9206 50.0612 21.7097 45.6203 21.5691 40.9684C21.3581 33.9906 21.5691 33.355 22.2047 27.6456C22.6266 23.8403 25.5881 17.7765 31.0866 9.45997C23.895 10.3065 18.8212 11.08 15.8597 11.7859C11.4187 12.8434 6.13125 16.6487 4.01906 19.6103C1.90406 22.569 0 27.2237 0 31.4509C0 35.6809 2.96156 39.0643 5.07656 36.1056C7.18875 33.144 4.65188 32.9331 4.01906 28.4922C3.38344 24.0512 6.345 20.8787 10.1503 17.4953C12.6872 15.2397 16.7062 13.7603 22.2047 13.0543C18.1153 19.1153 15.7894 24.8275 15.2269 30.1825Z" fill="#073113"/>
<path d="M41.8697 45.4093C36.1603 51.5406 37.6397 53.8665 39.9684 57.4637C42.2944 61.0581 42.2944 62.7484 39.9684 63.8059C37.6397 64.8634 34.0453 59.5759 34.47 53.8665C34.8919 48.1572 40.6012 41.1793 46.3106 38.8534C50.1187 37.3037 56.9559 36.2462 66.8222 35.6809L59.2116 44.7737L59.8444 38.8534C51.6684 39.1347 45.6778 41.32 41.8697 45.4093Z" fill="#073113"/>
<path d="M53.5022 55.3487C61.6781 45.7609 67.6687 38.2881 71.4769 32.9331C77.1862 24.8978 83.5284 11.575 81.2025 7.98059C78.8765 4.3834 79.0875 0.789023 81.2025 0.156211C83.3175 -0.479414 86.279 0.578088 86.49 7.98059C86.7009 15.3803 76.3397 31.6647 71.4769 38.6425C68.234 43.2943 59.8444 52.9525 46.3106 67.614L47.3681 43.7162L53.5022 42.0259V55.3487Z" fill="#073113"/>
<path d="M60.6909 55.9815L56.4609 60.4225" stroke="black" stroke-width="0.28125"/>
<path d="M56.4609 60.4225C51.1734 80.5122 46.0997 84.1065 41.8697 86.2215C37.6397 88.3365 36.1603 86.6434 33.2016 86.2215C31.2272 85.9403 30.0291 86.7165 29.6044 88.5475C29.8884 91.2278 31.4972 92.6368 34.4334 92.7775C38.8406 92.9884 45.2531 88.7584 50.6278 82.6272C54.2137 78.5378 57.5662 69.6559 60.6909 55.9815" fill="#073113"/>
<path d="M66.4031 91.1012L94.9669 47.5215L84.4491 84.606C83.6962 87.2607 85.7939 89.8625 88.5479 89.6896L93.3666 89.3871H101.482C102.014 89.3871 102.49 89.057 102.677 88.5587C103.273 86.9697 102.182 85.2523 100.49 85.117L92.6628 84.4908C92.0082 84.4385 91.5858 83.7663 91.8041 83.147C104.02 48.4815 108.261 33.2026 105.334 32.9246C102.372 32.6406 91.0884 46.6749 71.4825 75.0249L69.1566 45.4065L63.0225 52.3871L66.4031 91.1012Z" fill="#073113"/>
</svg>
