<svg width="1270" height="436" viewBox="0 0 1270 436" fill="none" xmlns="http://www.w3.org/2000/svg">
<path d="M104.567 435.868H256.19L290.546 273.806C298.016 234.224 303.99 195.39 310.712 149.088H314.446C321.916 195.39 328.638 234.224 336.856 273.806L372.706 435.868H528.062L628.148 10.9241H504.908L468.31 200.618C460.842 243.186 456.358 285.01 449.636 328.324H445.902C436.94 285.01 429.472 243.186 419.762 200.618L374.2 10.9241H259.922L215.856 200.618C205.4 242.44 198.676 285.01 191.208 328.324H187.473C180.751 285.01 176.27 243.186 169.548 200.618L131.455 10.9241H0L104.567 435.868Z" fill="white"/>
<path d="M628.118 435.868H761.068V152.074C785.714 125.936 808.868 113.986 828.288 113.986C861.898 113.986 877.584 130.416 877.584 189.416V435.868H1010.53V152.074C1035.93 125.936 1059.08 113.986 1078.5 113.986C1112.11 113.986 1127.05 130.416 1127.05 189.416V435.868H1260V172.986C1260 66.9361 1219.67 0.468018 1127.05 0.468018C1070.29 0.468018 1030.7 33.33 994.102 70.67C972.442 25.114 936.59 0.468018 877.584 0.468018C820.072 0.468018 783.474 29.594 748.368 64.696H746.128L736.418 10.924H628.118V435.868Z" fill="white"/>
</svg>
