<svg width="640" height="640" viewBox="0 0 640 640" fill="none" xmlns="http://www.w3.org/2000/svg">
<path d="M57.2834 428.434H133.095L150.273 347.403C154.008 327.612 156.995 308.195 160.356 285.044H162.223C165.958 308.195 169.319 327.612 173.428 347.403L191.353 428.434H269.031L319.074 215.962H257.454L239.155 310.809C235.421 332.093 233.179 353.005 229.818 374.662H227.951C223.47 353.005 219.736 332.093 214.881 310.809L192.1 215.962H134.961L112.928 310.809C107.7 331.72 104.338 353.005 100.604 374.662H98.7366C95.3756 353.005 93.1348 332.093 89.7738 310.809L70.7277 215.962H5L57.2834 428.434Z" fill="white"/>
<path d="M319.059 428.434H385.534V286.537C397.857 273.468 409.434 267.493 419.144 267.493C435.949 267.493 443.792 275.708 443.792 305.208V428.434H510.267V286.537C522.964 273.468 534.541 267.493 544.25 267.493C561.057 267.493 568.525 275.708 568.525 305.208V428.434H635V296.993C635 243.968 614.833 210.734 568.525 210.734C540.143 210.734 520.35 227.165 502.051 245.835C491.221 223.057 473.295 210.734 443.792 210.734C415.036 210.734 396.737 225.297 379.184 242.848H378.064L373.209 215.962H319.059V428.434Z" fill="white"/>
</svg>
