<?xml version="1.0" standalone="no"?>
<!DOCTYPE svg PUBLIC "-//W3C//DTD SVG 20010904//EN"
 "http://www.w3.org/TR/2001/REC-SVG-20010904/DTD/svg10.dtd">
<svg version="1.0" xmlns="http://www.w3.org/2000/svg"
 width="700.000000pt" height="700.000000pt" viewBox="0 0 700.000000 700.000000"
 preserveAspectRatio="xMidYMid meet">
<metadata>
Created by potrace 1.14, written by Peter Selinger 2001-2017
</metadata>
<g transform="translate(0.000000,700.000000) scale(0.100000,-0.100000)"
fill="#000000" stroke="none">
<path d="M4808 4695 c-2 -1 -31 -5 -65 -8 -171 -16 -359 -117 -535 -285 -70
-67 -72 -67 -83 -7 -3 17 -12 71 -21 120 -9 50 -17 97 -18 105 -3 13 -82 15
-634 17 -348 0 -634 -2 -636 -5 -2 -4 -7 -23 -10 -42 -3 -19 -8 -46 -11 -60
-6 -25 -70 -359 -105 -545 -11 -55 -33 -172 -50 -260 -17 -88 -33 -173 -36
-189 -7 -41 -53 -369 -60 -425 -2 -25 -7 -53 -9 -61 -2 -8 -7 -42 -11 -75 -5
-54 -17 -86 -27 -74 -3 2 -23 99 -46 214 -59 297 -87 427 -131 610 -21 88 -44
183 -50 210 -7 28 -14 58 -16 68 -2 9 -6 25 -8 35 -2 9 -9 37 -15 62 -7 25
-14 56 -17 70 -3 14 -14 61 -25 105 -12 44 -23 88 -25 98 -2 10 -6 27 -9 37
-3 10 -8 29 -10 42 -16 81 -41 174 -49 180 -12 8 -615 8 -620 0 -2 -4 -18 -70
-36 -147 -17 -77 -33 -147 -35 -155 -2 -8 -13 -53 -24 -100 -37 -159 -183
-785 -187 -805 -27 -142 -70 -377 -80 -440 -9 -63 -16 -85 -25 -85 -5 0 -10 5
-10 10 -1 6 -2 13 -3 18 -1 4 -6 36 -10 72 -4 36 -10 74 -12 85 -1 11 -6 40
-9 65 -3 25 -8 59 -11 75 -2 17 -6 48 -9 70 -10 85 -17 132 -25 180 -5 28 -11
68 -14 90 -7 50 -14 87 -26 145 -5 25 -12 56 -14 70 -2 14 -30 151 -61 305
-76 377 -73 360 -80 400 -3 17 -11 57 -18 90 l-13 60 -362 2 c-334 1 -361 0
-353 -15 5 -10 11 -33 14 -52 3 -19 46 -201 97 -404 50 -203 93 -376 95 -385
2 -9 15 -61 29 -116 41 -165 138 -559 140 -570 9 -46 180 -736 188 -756 l9
-25 412 0 412 1 12 55 c7 30 24 109 38 175 14 66 34 163 45 215 12 52 23 106
26 120 3 14 20 97 39 185 30 143 64 328 79 425 3 19 8 46 10 60 18 100 43 274
45 308 0 12 7 22 16 22 9 0 15 -9 16 -22 0 -13 2 -34 5 -48 2 -14 11 -68 19
-120 9 -52 22 -129 30 -170 8 -41 17 -88 20 -105 6 -38 18 -99 40 -200 9 -44
18 -87 20 -95 2 -8 20 -89 40 -180 102 -465 136 -615 141 -620 8 -7 831 -8
842 -1 7 5 63 228 88 351 3 14 21 88 39 165 19 77 55 230 81 340 25 110 57
245 70 300 13 55 33 141 45 190 11 50 22 97 24 105 2 8 19 80 39 160 19 80 37
157 40 170 5 27 104 447 116 495 5 17 8 -490 9 -1126 l1 -1155 363 0 362 1 0
775 0 775 45 43 c70 67 152 120 236 152 66 24 194 11 247 -25 48 -33 88 -119
103 -221 3 -21 7 -365 9 -764 1 -399 3 -728 4 -731 0 -3 163 -5 361 -5 l360 0
0 776 0 776 33 31 c64 61 167 131 224 153 139 53 280 15 333 -90 46 -91 48
-127 49 -893 0 -397 1 -729 1 -738 0 -13 41 -15 358 -15 196 0 359 3 362 7 8
11 4 1585 -4 1639 -52 364 -166 558 -390 666 -162 78 -389 90 -571 29 -124
-42 -280 -145 -412 -274 l-72 -70 -33 62 c-47 88 -167 206 -248 244 -116 54
-193 72 -336 78 -35 1 -65 1 -66 0z"/>
</g>
</svg>
